<svg id="visual" viewBox="0 0 960 540" width="960" height="540" xmlns="http://www.w3.org/2000/svg" xmlns:xlink="http://www.w3.org/1999/xlink" version="1.1"><path d="M0 39L12.3 39.8C24.7 40.7 49.3 42.3 74 44.2C98.7 46 123.3 48 148 49C172.7 50 197.3 50 221.8 53.5C246.3 57 270.7 64 295.2 64C319.7 64 344.3 57 369 56.2C393.7 55.3 418.3 60.7 443 59.7C467.7 58.7 492.3 51.3 517 46.8C541.7 42.3 566.3 40.7 591 43.3C615.7 46 640.3 53 664.8 58.3C689.3 63.7 713.7 67.3 738.2 64.7C762.7 62 787.3 53 812 52.2C836.7 51.3 861.3 58.7 886 61.3C910.7 64 935.3 62 947.7 61L960 60L960 0L947.7 0C935.3 0 910.7 0 886 0C861.3 0 836.7 0 812 0C787.3 0 762.7 0 738.2 0C713.7 0 689.3 0 664.8 0C640.3 0 615.7 0 591 0C566.3 0 541.7 0 517 0C492.3 0 467.7 0 443 0C418.3 0 393.7 0 369 0C344.3 0 319.7 0 295.2 0C270.7 0 246.3 0 221.8 0C197.3 0 172.7 0 148 0C123.3 0 98.7 0 74 0C49.3 0 24.7 0 12.3 0L0 0Z" fill="#2878af"></path><path d="M0 66L12.3 66.8C24.7 67.7 49.3 69.3 74 72.8C98.7 76.3 123.3 81.7 148 82.7C172.7 83.7 197.3 80.3 221.8 83.2C246.3 86 270.7 95 295.2 96.7C319.7 98.3 344.3 92.7 369 90.8C393.7 89 418.3 91 443 90.2C467.7 89.3 492.3 85.7 517 81.2C541.7 76.7 566.3 71.3 591 74C615.7 76.7 640.3 87.3 664.8 91.8C689.3 96.3 713.7 94.7 738.2 92C762.7 89.3 787.3 85.7 812 84.7C836.7 83.7 861.3 85.3 886 85.3C910.7 85.3 935.3 83.7 947.7 82.8L960 82L960 58L947.7 59C935.3 60 910.7 62 886 59.3C861.3 56.7 836.7 49.3 812 50.2C787.3 51 762.7 60 738.2 62.7C713.7 65.3 689.3 61.7 664.8 56.3C640.3 51 615.7 44 591 41.3C566.3 38.7 541.7 40.3 517 44.8C492.3 49.3 467.7 56.7 443 57.7C418.3 58.7 393.7 53.3 369 54.2C344.3 55 319.7 62 295.2 62C270.7 62 246.3 55 221.8 51.5C197.3 48 172.7 48 148 47C123.3 46 98.7 44 74 42.2C49.3 40.3 24.7 38.7 12.3 37.8L0 37Z" fill="#3393d4"></path><path d="M0 152L12.3 149.3C24.7 146.7 49.3 141.3 74 138.7C98.7 136 123.3 136 148 141.3C172.7 146.7 197.3 157.3 221.8 161C246.3 164.7 270.7 161.3 295.2 157.8C319.7 154.3 344.3 150.7 369 149.7C393.7 148.7 418.3 150.3 443 155.7C467.7 161 492.3 170 517 165.5C541.7 161 566.3 143 591 144.8C615.7 146.7 640.3 168.3 664.8 171C689.3 173.7 713.7 157.3 738.2 150.2C762.7 143 787.3 145 812 146C836.7 147 861.3 147 886 147C910.7 147 935.3 147 947.7 147L960 147L960 80L947.7 80.8C935.3 81.7 910.7 83.3 886 83.3C861.3 83.3 836.7 81.7 812 82.7C787.3 83.7 762.7 87.3 738.2 90C713.7 92.7 689.3 94.3 664.8 89.8C640.3 85.3 615.7 74.7 591 72C566.3 69.3 541.7 74.7 517 79.2C492.3 83.7 467.7 87.3 443 88.2C418.3 89 393.7 87 369 88.8C344.3 90.7 319.7 96.3 295.2 94.7C270.7 93 246.3 84 221.8 81.2C197.3 78.3 172.7 81.7 148 80.7C123.3 79.7 98.7 74.3 74 70.8C49.3 67.3 24.7 65.7 12.3 64.8L0 64Z" fill="#4faaec"></path><path d="M0 287L12.3 288.8C24.7 290.7 49.3 294.3 74 289.8C98.7 285.3 123.3 272.7 148 269C172.7 265.3 197.3 270.7 221.8 275.2C246.3 279.7 270.7 283.3 295.2 283.3C319.7 283.3 344.3 279.7 369 280.7C393.7 281.7 418.3 287.3 443 291C467.7 294.7 492.3 296.3 517 290.8C541.7 285.3 566.3 272.7 591 270C615.7 267.3 640.3 274.7 664.8 278.3C689.3 282 713.7 282 738.2 284.7C762.7 287.3 787.3 292.7 812 286.3C836.7 280 861.3 262 886 257.5C910.7 253 935.3 262 947.7 266.5L960 271L960 145L947.7 145C935.3 145 910.7 145 886 145C861.3 145 836.7 145 812 144C787.3 143 762.7 141 738.2 148.2C713.7 155.3 689.3 171.7 664.8 169C640.3 166.3 615.7 144.7 591 142.8C566.3 141 541.7 159 517 163.5C492.3 168 467.7 159 443 153.7C418.3 148.3 393.7 146.7 369 147.7C344.3 148.7 319.7 152.3 295.2 155.8C270.7 159.3 246.3 162.7 221.8 159C197.3 155.3 172.7 144.7 148 139.3C123.3 134 98.7 134 74 136.7C49.3 139.3 24.7 144.7 12.3 147.3L0 150Z" fill="#79bcef"></path><path d="M0 325L12.3 326.8C24.7 328.7 49.3 332.3 74 327.8C98.7 323.3 123.3 310.7 148 306.2C172.7 301.7 197.3 305.3 221.8 309.8C246.3 314.3 270.7 319.7 295.2 319.7C319.7 319.7 344.3 314.3 369 316.2C393.7 318 418.3 327 443 329.7C467.7 332.3 492.3 328.7 517 322.3C541.7 316 566.3 307 591 304.3C615.7 301.7 640.3 305.3 664.8 308C689.3 310.7 713.7 312.3 738.2 315.8C762.7 319.3 787.3 324.7 812 319.3C836.7 314 861.3 298 886 293.5C910.7 289 935.3 296 947.7 299.5L960 303L960 269L947.7 264.5C935.3 260 910.7 251 886 255.5C861.3 260 836.7 278 812 284.3C787.3 290.7 762.7 285.3 738.2 282.7C713.7 280 689.3 280 664.8 276.3C640.3 272.7 615.7 265.3 591 268C566.3 270.7 541.7 283.3 517 288.8C492.3 294.3 467.7 292.7 443 289C418.3 285.3 393.7 279.7 369 278.7C344.3 277.7 319.7 281.3 295.2 281.3C270.7 281.3 246.3 277.7 221.8 273.2C197.3 268.7 172.7 263.3 148 267C123.3 270.7 98.7 283.3 74 287.8C49.3 292.3 24.7 288.7 12.3 286.8L0 285Z" fill="#80c0f0"></path><path d="M0 357L12.3 358C24.7 359 49.3 361 74 354.8C98.7 348.7 123.3 334.3 148 331.7C172.7 329 197.3 338 221.8 344.2C246.3 350.3 270.7 353.7 295.2 350.8C319.7 348 344.3 339 369 339C393.7 339 418.3 348 443 353.5C467.7 359 492.3 361 517 354.8C541.7 348.7 566.3 334.3 591 330.7C615.7 327 640.3 334 664.8 336.7C689.3 339.3 713.7 337.7 738.2 339.5C762.7 341.3 787.3 346.7 812 341.2C836.7 335.7 861.3 319.3 886 316.7C910.7 314 935.3 325 947.7 330.5L960 336L960 301L947.7 297.5C935.3 294 910.7 287 886 291.5C861.3 296 836.7 312 812 317.3C787.3 322.7 762.7 317.3 738.2 313.8C713.7 310.3 689.3 308.7 664.8 306C640.3 303.3 615.7 299.7 591 302.3C566.3 305 541.7 314 517 320.3C492.3 326.7 467.7 330.3 443 327.7C418.3 325 393.7 316 369 314.2C344.3 312.3 319.7 317.7 295.2 317.7C270.7 317.7 246.3 312.3 221.8 307.8C197.3 303.3 172.7 299.7 148 304.2C123.3 308.7 98.7 321.3 74 325.8C49.3 330.3 24.7 326.7 12.3 324.8L0 323Z" fill="#79bcef"></path><path d="M0 465L12.3 464.2C24.7 463.3 49.3 461.7 74 459C98.7 456.3 123.3 452.7 148 452.7C172.7 452.7 197.3 456.3 221.8 457.3C246.3 458.3 270.7 456.7 295.2 455.8C319.7 455 344.3 455 369 455.8C393.7 456.7 418.3 458.3 443 461C467.7 463.7 492.3 467.3 517 464.7C541.7 462 566.3 453 591 453C615.7 453 640.3 462 664.8 463.8C689.3 465.7 713.7 460.3 738.2 456.7C762.7 453 787.3 451 812 451C836.7 451 861.3 453 886 454.8C910.7 456.7 935.3 458.3 947.7 459.2L960 460L960 334L947.7 328.5C935.3 323 910.7 312 886 314.7C861.3 317.3 836.7 333.7 812 339.2C787.3 344.7 762.7 339.3 738.2 337.5C713.7 335.7 689.3 337.3 664.8 334.7C640.3 332 615.7 325 591 328.7C566.3 332.3 541.7 346.7 517 352.8C492.3 359 467.7 357 443 351.5C418.3 346 393.7 337 369 337C344.3 337 319.7 346 295.2 348.8C270.7 351.7 246.3 348.3 221.8 342.2C197.3 336 172.7 327 148 329.7C123.3 332.3 98.7 346.7 74 352.8C49.3 359 24.7 357 12.3 356L0 355Z" fill="#4faaec"></path><path d="M0 498L12.3 499.8C24.7 501.7 49.3 505.3 74 506.2C98.7 507 123.3 505 148 504C172.7 503 197.3 503 221.8 502.2C246.3 501.3 270.7 499.7 295.2 498.8C319.7 498 344.3 498 369 498C393.7 498 418.3 498 443 499.8C467.7 501.7 492.3 505.3 517 504.3C541.7 503.3 566.3 497.7 591 497.7C615.7 497.7 640.3 503.3 664.8 504.3C689.3 505.3 713.7 501.7 738.2 501.7C762.7 501.7 787.3 505.3 812 507.2C836.7 509 861.3 509 886 507.2C910.7 505.3 935.3 501.7 947.7 499.8L960 498L960 458L947.7 457.2C935.3 456.3 910.7 454.7 886 452.8C861.3 451 836.7 449 812 449C787.3 449 762.7 451 738.2 454.7C713.7 458.3 689.3 463.7 664.8 461.8C640.3 460 615.7 451 591 451C566.3 451 541.7 460 517 462.7C492.3 465.3 467.7 461.7 443 459C418.3 456.3 393.7 454.7 369 453.8C344.3 453 319.7 453 295.2 453.8C270.7 454.7 246.3 456.3 221.8 455.3C197.3 454.3 172.7 450.7 148 450.7C123.3 450.7 98.7 454.3 74 457C49.3 459.7 24.7 461.3 12.3 462.2L0 463Z" fill="#3393d4"></path><path d="M0 541L12.3 541C24.7 541 49.3 541 74 541C98.7 541 123.3 541 148 541C172.7 541 197.3 541 221.8 541C246.3 541 270.7 541 295.2 541C319.7 541 344.3 541 369 541C393.7 541 418.3 541 443 541C467.7 541 492.3 541 517 541C541.7 541 566.3 541 591 541C615.7 541 640.3 541 664.8 541C689.3 541 713.7 541 738.2 541C762.7 541 787.3 541 812 541C836.7 541 861.3 541 886 541C910.7 541 935.3 541 947.7 541L960 541L960 496L947.7 497.8C935.3 499.7 910.7 503.3 886 505.2C861.3 507 836.7 507 812 505.2C787.3 503.3 762.7 499.7 738.2 499.7C713.7 499.7 689.3 503.3 664.8 502.3C640.3 501.3 615.7 495.7 591 495.7C566.3 495.7 541.7 501.3 517 502.3C492.3 503.3 467.7 499.7 443 497.8C418.3 496 393.7 496 369 496C344.3 496 319.7 496 295.2 496.8C270.7 497.7 246.3 499.3 221.8 500.2C197.3 501 172.7 501 148 502C123.3 503 98.7 505 74 504.2C49.3 503.3 24.7 499.7 12.3 497.8L0 496Z" fill="#2878af"></path></svg>